<svg width="78" height="78" viewBox="0 0 78 78" fill="none" xmlns="http://www.w3.org/2000/svg">
<path fill-rule="evenodd" clip-rule="evenodd" d="M0 39C0.321827 22.1041 0.482741 13.6561 5.23008 7.95299C6.05299 6.96441 6.96441 6.05299 7.95299 5.23008C13.6561 0.482741 22.1041 0.321827 39 0C55.8959 0.321827 64.3439 0.482741 70.047 5.23008C71.0356 6.05299 71.947 6.96441 72.7699 7.95299C77.5173 13.6561 77.6782 22.1041 78 39C77.6782 55.8959 77.5173 64.3439 72.7699 70.047C71.947 71.0356 71.0356 71.947 70.047 72.7699C64.3439 77.5173 55.8959 77.6782 39 78C22.1041 77.6782 13.6561 77.5173 7.95299 72.7699C6.96441 71.947 6.05299 71.0356 5.23008 70.047C0.482741 64.3439 0.321827 55.8959 0 39ZM46.9924 49.4138C45.692 49.4138 44.6379 48.3596 44.6379 47.0593V46.9926C44.6379 45.6554 43.5539 44.5714 42.2167 44.5714H35.9162C34.579 44.5714 33.495 45.6555 33.495 46.9927C33.495 48.3298 32.4111 49.4138 31.074 49.4138C29.737 49.4138 28.6531 50.4977 28.6531 51.8348V58.1357C28.6531 59.4727 29.737 60.5566 31.074 60.5566H31.1407C32.441 60.5566 33.495 61.6107 33.495 62.911C33.495 64.2112 34.5491 65.2653 35.8494 65.2653H42.2836C43.5838 65.2653 44.6379 64.2112 44.6379 62.911C44.6379 61.6107 45.6921 60.5566 46.9923 60.5566C48.2927 60.5566 49.3469 59.5025 49.3469 58.2021V51.7683C49.3469 50.4679 48.2928 49.4138 46.9924 49.4138ZM44.6379 15.2225C44.6379 16.5229 45.692 17.577 46.9924 17.577C48.2928 17.577 49.3469 18.6312 49.3469 19.9316V26.3654C49.3469 27.6657 48.2927 28.7199 46.9923 28.7199C45.6921 28.7199 44.6379 29.774 44.6379 31.0742C44.6379 32.3745 43.5838 33.4286 42.2836 33.4286H35.8494C34.5491 33.4286 33.495 32.3745 33.495 31.0742C33.495 29.774 32.441 28.7199 31.1407 28.7199H31.074C29.737 28.7199 28.6531 27.636 28.6531 26.2989V19.998C28.6531 18.661 29.737 17.577 31.074 17.577C32.4111 17.577 33.495 16.493 33.495 15.156C33.495 13.8188 34.579 12.7347 35.9162 12.7347H42.2167C43.5539 12.7347 44.6379 13.8187 44.6379 15.1559V15.2225Z" fill="#B6FF00"/>
</svg>
